<?xml version="1.0" encoding="UTF-8"?><svg id="Layer_1" xmlns="http://www.w3.org/2000/svg" viewBox="0 0 1920 1080"><defs><style>.cls-1{font-family:ArialRoundedMTBold, 'Arial Rounded MT Bold';font-size:412px;}.cls-1,.cls-2{fill:#591dff;}.cls-2,.cls-3{stroke-width:0px;}.cls-3{fill:#ff8f92;}</style></defs><path class="cls-3" d="m1920.5,856.5c-43.85,40.26-112.56,90.19-203,102-143.2,18.7-191.84-77.63-347-92-195.39-18.09-223.91,124.87-428,117-184.64-7.12-194.78-125.43-372-118-154.67,6.49-207.29,99.13-357,84-96.03-9.71-169.44-57.43-213.5-92.5V0h1920c.17,285.5.33,571,.5,856.5Z"/><circle class="cls-2" cx="1582.5" cy="802.5" r="20.5"/><circle class="cls-2" cx="1781.5" cy="662.5" r="70.5"/><circle class="cls-2" cx="1698" cy="846" r="43"/><text class="cls-1" transform="translate(1246.81 606.81) scale(.88 1)"><tspan x="0" y="0">P</tspan></text></svg>