<?xml version="1.0" encoding="UTF-8"?><svg id="Layer_1" xmlns="http://www.w3.org/2000/svg" viewBox="0 0 1920 1080"><defs><style>.cls-1{fill:#ff777a;stroke-width:0px;}</style></defs><path class="cls-1" d="m1920,1000c-42.07,25.29-103.71,52.66-175,46-90.74-8.48-107.46-63.72-194-79-114.2-20.16-140.43,66.25-279,70-128.02,3.46-135.38-69.48-267-71-144.99-1.67-165.16,86.51-297,78-136.57-8.81-147.61-105.54-269-100-111.98,5.11-143.55,89.21-271,95C95.96,1042.27,36.57,1018.58,0,1000V102c39.22,34.46,100.05,76.08,174,75,109.51-1.6,138.9-95.23,248-102,115.26-7.15,132.76,94.21,260,99,126.14,4.75,144.03-93.56,278-97,136.13-3.49,157.86,96.99,293,90,126.94-6.57,139.47-96.86,255-90,108.13,6.42,139.12,88.01,249,87,69.07-.63,125.48-33.5,163-62v898Z"/></svg>